<?xml version="1.0" standalone="no"?>
<!DOCTYPE svg PUBLIC "-//W3C//DTD SVG 20010904//EN"
 "http://www.w3.org/TR/2001/REC-SVG-20010904/DTD/svg10.dtd">
<svg version="1.0" xmlns="http://www.w3.org/2000/svg"
 width="515.000000pt" height="392.000000pt" viewBox="0 0 515.000000 392.000000"
 preserveAspectRatio="xMidYMid meet">
<metadata>
Created by potrace 1.16, written by Peter Selinger 2001-2019
</metadata>
<g transform="translate(0.000000,392.000000) scale(0.100000,-0.100000)"
fill="#000000" stroke="none">
<path d="M1776 1730 c-60 -23 -127 -87 -158 -149 -20 -40 -23 -62 -23 -171 0
-144 10 -184 63 -242 56 -62 103 -82 197 -82 l80 -1 0 50 0 50 -56 -3 c-94 -6
-142 32 -173 137 -20 68 -20 113 -1 179 29 97 96 147 187 140 l43 -3 3 43 c2
24 -2 50 -9 58 -16 20 -94 17 -153 -6z"/>
<path d="M3180 1728 c-54 -29 -87 -74 -95 -133 -12 -78 0 -103 95 -196 97 -95
110 -114 110 -157 0 -65 -87 -94 -156 -52 -31 20 -33 20 -42 3 -5 -10 -13 -32
-16 -50 -6 -27 -4 -34 20 -49 40 -27 166 -26 219 2 78 41 107 150 64 237 -12
23 -59 78 -105 123 -79 76 -84 83 -84 122 0 50 32 79 78 68 58 -15 64 -13 78
28 19 52 6 65 -67 72 -44 5 -62 1 -99 -18z"/>
<path d="M650 1696 c0 -41 2 -44 31 -50 17 -3 53 -6 80 -6 28 0 49 -5 49 -11
0 -5 -41 -130 -90 -276 -50 -146 -89 -267 -88 -269 3 -2 298 -7 326 -5 8 1 12
18 12 51 l0 50 -89 0 c-50 0 -92 4 -95 9 -5 8 57 202 127 391 19 52 38 110 42
128 l7 32 -156 0 -156 0 0 -44z"/>
<path d="M1206 1658 c-16 -78 -110 -507 -121 -555 -5 -22 -2 -23 50 -23 51 0
55 2 61 28 12 55 15 60 42 65 15 3 47 3 70 0 40 -5 43 -8 53 -49 l11 -44 49 0
c26 0 50 4 53 8 2 4 -4 46 -15 92 -20 86 -119 548 -119 556 0 2 -26 4 -58 4
l-59 0 -17 -82z"/>
<path d="M2050 1411 l0 -329 51 -4 c39 -2 53 1 58 12 3 8 6 75 6 148 0 75 3
131 9 129 5 -2 44 -66 88 -142 43 -77 81 -141 83 -143 6 -7 115 -5 122 1 3 3
-15 41 -40 84 -135 236 -147 261 -136 290 5 14 41 79 79 144 39 64 70 122 70
128 0 8 -20 11 -61 9 l-61 -3 -68 -123 c-37 -68 -73 -129 -79 -135 -9 -9 -10
21 -5 126 l7 137 -61 0 -62 0 0 -329z"/>
<path d="M2582 1473 c3 -264 3 -269 28 -312 34 -60 85 -86 166 -85 95 1 155
45 174 130 5 21 10 150 10 287 l0 247 -55 0 -55 0 0 -222 c0 -124 -5 -240 -11
-261 -19 -69 -83 -87 -123 -34 -20 27 -21 38 -19 273 l3 244 -61 0 -61 0 4
-267z"/>
<path d="M3517 1733 c-4 -3 -7 -151 -7 -329 l0 -322 51 -4 c28 -1 55 -1 60 2
4 3 10 72 11 154 l3 148 83 -146 c46 -80 88 -148 94 -152 16 -10 112 -8 115 3
2 5 -35 76 -82 158 -47 83 -88 160 -91 173 -8 28 7 64 69 165 27 45 57 98 68
119 l19 38 -64 0 -64 0 -73 -135 -74 -135 -3 135 -3 135 -53 0 c-29 0 -56 -3
-59 -7z"/>
<path d="M4116 1428 c-37 -172 -70 -321 -73 -330 -4 -16 3 -18 51 -18 59 0 58
-1 68 64 4 25 48 37 104 29 40 -5 43 -8 54 -50 l13 -44 51 3 c38 2 51 7 50 18
-1 8 -32 153 -68 322 -36 169 -66 310 -66 313 0 3 -26 5 -58 5 l-58 0 -68
-312z"/>
</g>
</svg>
